<svg width="74" height="18" viewBox="0 0 74 18" fill="none" xmlns="http://www.w3.org/2000/svg">
<path d="M26.9227 10.306C26.8593 10.2426 26.8434 10.1792 26.8434 10.084L26.8752 9.95718L30.3319 0.665238C30.427 0.42739 30.6014 0.300537 30.8552 0.300537H32.4408C32.6945 0.300537 32.8689 0.42739 32.9641 0.665238L36.4208 9.95718L36.4525 10.084C36.4525 10.1633 36.4208 10.2426 36.3574 10.306C36.294 10.3695 36.2305 10.3853 36.1512 10.3853H34.8669C34.6607 10.3853 34.518 10.2902 34.4546 10.1157L33.7886 8.37153H29.5232L28.8572 10.1157C28.7779 10.306 28.6352 10.3853 28.445 10.3853H27.1289C27.0496 10.3853 26.9703 10.3536 26.9227 10.306ZM29.9989 6.69073H33.2654L31.6321 2.25089L29.9989 6.69073Z" fill="white"/>
<path d="M38.4338 10.2894C38.3703 10.226 38.3386 10.1467 38.3386 10.0516V0.648649C38.3386 0.537653 38.3703 0.45837 38.4338 0.394944C38.4972 0.331518 38.5765 0.299805 38.6875 0.299805H42.4296C43.6189 0.299805 44.5385 0.569366 45.2045 1.12435C45.8705 1.67933 46.2035 2.4563 46.2035 3.45526C46.2035 4.15295 46.0291 4.73964 45.6961 5.21534C45.3631 5.69103 44.8874 6.03988 44.2848 6.24601L46.3779 9.92474C46.4096 9.98816 46.4255 10.0357 46.4255 10.0833C46.4255 10.1626 46.3938 10.2419 46.3303 10.3053C46.2669 10.3687 46.2035 10.3846 46.1242 10.3846H44.7922C44.6337 10.3846 44.5227 10.3529 44.4275 10.2736C44.3483 10.1943 44.269 10.115 44.1897 9.98816L42.3503 6.579H40.3683V10.0357C40.3683 10.1309 40.3365 10.2102 40.2731 10.2736C40.2097 10.337 40.1146 10.3687 40.0194 10.3687H38.6875C38.5923 10.3846 38.4972 10.3529 38.4338 10.2894ZM42.3662 4.94578C42.937 4.94578 43.381 4.81892 43.6664 4.56522C43.9518 4.31151 44.0946 3.93096 44.0946 3.45526C44.0946 2.97956 43.9518 2.58315 43.6664 2.32944C43.381 2.05988 42.9529 1.93303 42.3662 1.93303H40.3683V4.96163H42.3662V4.94578Z" fill="white"/>
<path d="M48.7247 10.2894C48.6612 10.226 48.6295 10.1467 48.6295 10.0516V0.648649C48.6295 0.537653 48.6612 0.45837 48.7247 0.394944C48.7881 0.331518 48.8674 0.299805 48.9784 0.299805H50.1517C50.342 0.299805 50.4847 0.394944 50.5799 0.569366L53.3548 5.7386L56.1455 0.569366C56.2565 0.379087 56.3992 0.299805 56.5737 0.299805H57.7312C57.8422 0.299805 57.9215 0.331518 57.9849 0.394944C58.0483 0.45837 58.08 0.55351 58.08 0.648649V10.0357C58.08 10.1467 58.0483 10.226 57.9849 10.2894C57.9215 10.3529 57.8263 10.3846 57.7312 10.3846H56.4944C56.3992 10.3846 56.3199 10.3529 56.2565 10.2894C56.1931 10.226 56.1614 10.1467 56.1614 10.0516V3.83582L54.1635 7.64139C54.0525 7.84753 53.8939 7.95852 53.6878 7.95852H53.0852C52.8791 7.95852 52.7205 7.84753 52.5937 7.64139L50.5957 3.83582V10.0357C50.5957 10.1309 50.564 10.2102 50.5006 10.2736C50.4372 10.337 50.3579 10.3687 50.2469 10.3687H49.0101C48.8832 10.3846 48.8039 10.3529 48.7247 10.2894Z" fill="white"/>
<path d="M61.0135 10.2894C60.9501 10.226 60.9184 10.1467 60.9184 10.0516V0.648649C60.9184 0.537653 60.9501 0.45837 61.0135 0.394944C61.077 0.331518 61.1562 0.299805 61.2514 0.299805H62.6309C62.7419 0.299805 62.8212 0.331518 62.8846 0.394944C62.948 0.45837 62.9797 0.537653 62.9797 0.648649V10.0357C62.9797 10.1309 62.948 10.2102 62.8846 10.2736C62.8212 10.337 62.7419 10.3687 62.6309 10.3687H61.2514C61.1562 10.3846 61.077 10.3529 61.0135 10.2894Z" fill="white"/>
<path d="M65.0252 10.3053C64.9618 10.2419 64.9301 10.1784 64.9301 10.0833C64.9301 10.0516 64.9459 9.98815 64.9935 9.90887L68.2124 5.23118L65.1996 0.759632C65.1679 0.696206 65.1362 0.648636 65.1362 0.58521C65.1362 0.505927 65.1679 0.426645 65.2313 0.363218C65.2948 0.299792 65.3582 0.283936 65.4375 0.283936H66.9438C67.1183 0.283936 67.261 0.379075 67.3878 0.553497L69.4967 3.64553L71.6215 0.553497C71.7325 0.363218 71.8752 0.283936 72.0655 0.283936H73.4926C73.5719 0.283936 73.6353 0.315649 73.6987 0.363218C73.7622 0.426645 73.7939 0.490071 73.7939 0.58521C73.7939 0.616923 73.778 0.68035 73.7304 0.759632L70.7177 5.23118L73.9524 9.90887C73.9841 9.97229 74 10.0199 74 10.0833C74 10.1626 73.9683 10.2419 73.9207 10.3053C73.8573 10.3687 73.7939 10.3846 73.6987 10.3846H72.1606C71.9862 10.3846 71.8435 10.3053 71.7167 10.1309L69.4333 6.88026L67.1817 10.1309C67.0548 10.3053 66.9121 10.3846 66.7377 10.3846H65.2313C65.1679 10.3846 65.0886 10.3528 65.0252 10.3053Z" fill="white"/>
<path d="M26.8585 16.8064C26.8426 16.7906 26.8268 16.7747 26.8268 16.743L26.8426 16.6955L27.9209 13.8888C27.9367 13.8254 27.9843 13.7937 28.0636 13.7937H28.3332C28.3966 13.7937 28.4442 13.8254 28.4759 13.8888L29.5541 16.6955L29.57 16.743C29.57 16.7589 29.5541 16.7906 29.5383 16.8064C29.5224 16.8223 29.4907 16.8382 29.4748 16.8382H29.2687C29.237 16.8382 29.2211 16.8223 29.1894 16.8064C29.1736 16.7906 29.1577 16.7747 29.1577 16.7589L28.9198 16.1405H27.4928L27.2549 16.7589C27.2391 16.8064 27.1915 16.8382 27.1439 16.8382H26.9378C26.8902 16.8382 26.8744 16.8223 26.8585 16.8064ZM27.6038 15.7758H28.793L28.2063 14.2218L27.6038 15.7758Z" fill="white"/>
<path d="M30.9653 16.5686C30.7592 16.3624 30.6482 16.077 30.6323 15.7282C30.6323 15.6489 30.6323 15.5062 30.6323 15.3159C30.6323 15.1256 30.6323 14.9988 30.6323 14.9036C30.6482 14.5548 30.7592 14.2694 30.9653 14.0632C31.1714 13.8571 31.4727 13.7461 31.8374 13.7461C32.0911 13.7461 32.3131 13.7937 32.4875 13.8888C32.662 13.9839 32.7888 14.0949 32.884 14.2218C32.9791 14.3486 33.0267 14.4755 33.0267 14.5865V14.6023C33.0267 14.6182 33.0108 14.6499 32.995 14.6658C32.9791 14.6816 32.9474 14.6975 32.9315 14.6975H32.6937C32.662 14.6975 32.6461 14.6975 32.6302 14.6816C32.6144 14.6658 32.5985 14.6499 32.5985 14.6182C32.551 14.4755 32.4717 14.3645 32.3448 14.2694C32.218 14.1742 32.0594 14.1267 31.8374 14.1267C31.5996 14.1267 31.4093 14.1901 31.2666 14.3328C31.1239 14.4596 31.0604 14.6658 31.0446 14.9512C31.0446 15.0305 31.0446 15.1573 31.0446 15.3317C31.0446 15.5062 31.0446 15.633 31.0446 15.7123C31.0604 15.9977 31.1239 16.2039 31.2666 16.3307C31.4093 16.4576 31.5996 16.5368 31.8374 16.5368C32.0753 16.5368 32.2814 16.4734 32.4241 16.3307C32.5668 16.2039 32.6461 15.9977 32.6461 15.7282V15.5379H31.9801C31.9484 15.5379 31.9326 15.522 31.9008 15.5062C31.885 15.4903 31.8691 15.4586 31.8691 15.4269V15.3C31.8691 15.2683 31.885 15.2525 31.9008 15.2208C31.9167 15.2049 31.9484 15.189 31.9801 15.189H32.9474C32.9791 15.189 33.0108 15.2049 33.0267 15.2208C33.0425 15.2366 33.0584 15.2683 33.0584 15.3V15.7123C33.0584 15.9502 33.0108 16.1563 32.9157 16.3307C32.8205 16.5051 32.6778 16.6478 32.4875 16.743C32.2973 16.8381 32.0911 16.8857 31.8374 16.8857C31.4569 16.8857 31.1714 16.7747 30.9653 16.5686Z" fill="white"/>
<path d="M34.4854 16.8064C34.4696 16.7906 34.4537 16.7589 34.4537 16.7272V13.9047C34.4537 13.873 34.4696 13.8413 34.4854 13.8254C34.5013 13.8096 34.533 13.7937 34.5489 13.7937H36.3248C36.3565 13.7937 36.3882 13.8096 36.4041 13.8254C36.4199 13.8413 36.4358 13.873 36.4358 13.9047V14.0633C36.4358 14.095 36.4199 14.1108 36.4041 14.1267C36.3882 14.1425 36.3565 14.1584 36.3248 14.1584H34.8501V15.1257H36.2297C36.2614 15.1257 36.2931 15.1415 36.309 15.1574C36.3248 15.1732 36.3407 15.2049 36.3407 15.2366V15.3794C36.3407 15.4111 36.3248 15.4269 36.309 15.4586C36.2931 15.4745 36.2614 15.4904 36.2297 15.4904H34.8501V16.4893H36.3565C36.3882 16.4893 36.4199 16.5052 36.4358 16.521C36.4517 16.5369 36.4675 16.5686 36.4675 16.6003V16.7589C36.4675 16.7906 36.4517 16.8064 36.4358 16.8382C36.4199 16.854 36.3882 16.8699 36.3565 16.8699H34.533C34.533 16.8382 34.5013 16.8223 34.4854 16.8064Z" fill="white"/>
<path d="M37.8946 16.8064C37.8788 16.7906 37.8629 16.7589 37.8629 16.7272V13.9047C37.8629 13.873 37.8788 13.8413 37.8946 13.8254C37.9105 13.8096 37.9422 13.7937 37.9581 13.7937H38.1483C38.18 13.7937 38.1959 13.7937 38.2118 13.8096C38.2276 13.8254 38.2435 13.8413 38.2593 13.8571L39.7181 16.0929V13.9047C39.7181 13.873 39.734 13.8413 39.7498 13.8254C39.7657 13.8096 39.7974 13.7937 39.8291 13.7937H40.0194C40.0511 13.7937 40.0828 13.8096 40.0987 13.8254C40.1145 13.8413 40.1304 13.873 40.1304 13.9047V16.7272C40.1304 16.7589 40.1145 16.7747 40.0987 16.8064C40.0828 16.8223 40.0511 16.8382 40.0194 16.8382H39.8133C39.7657 16.8382 39.734 16.8223 39.7023 16.7747L38.2435 14.5548V16.7272C38.2435 16.7589 38.2276 16.7747 38.2118 16.8064C38.1959 16.8223 38.1642 16.8382 38.1325 16.8382H37.9263C37.9263 16.8382 37.9105 16.8223 37.8946 16.8064Z" fill="white"/>
<path d="M41.8588 16.5686C41.6527 16.3624 41.5575 16.077 41.5417 15.7123C41.5417 15.633 41.5417 15.5062 41.5417 15.3318C41.5417 15.1573 41.5417 15.0305 41.5417 14.9353C41.5575 14.5706 41.6685 14.2852 41.8588 14.0791C42.065 13.873 42.3504 13.762 42.7309 13.762C42.9846 13.762 43.2066 13.8095 43.381 13.9047C43.5555 13.9998 43.6982 14.1108 43.7933 14.2694C43.8885 14.4121 43.936 14.5706 43.936 14.7451C43.936 14.7768 43.9202 14.7926 43.9043 14.8085C43.8885 14.8244 43.8567 14.8402 43.8409 14.8402H43.6189C43.5872 14.8402 43.5713 14.8402 43.5555 14.8244C43.5396 14.8085 43.5238 14.7926 43.5238 14.7451C43.4762 14.5231 43.3811 14.3645 43.2542 14.2694C43.1273 14.1742 42.9529 14.1425 42.7309 14.1425C42.2235 14.1425 41.9698 14.4279 41.954 14.9829C41.954 15.0622 41.954 15.1732 41.954 15.3476C41.954 15.5062 41.954 15.633 41.954 15.7123C41.9698 16.2673 42.2394 16.5527 42.7309 16.5527C42.9529 16.5527 43.1273 16.5051 43.2542 16.4259C43.3811 16.3466 43.4762 16.188 43.5238 15.966C43.5396 15.9343 43.5396 15.9026 43.5555 15.8867C43.5713 15.8709 43.603 15.8709 43.6189 15.8709H43.8409C43.8726 15.8709 43.8885 15.8867 43.9043 15.9026C43.9202 15.9185 43.936 15.9343 43.936 15.966C43.9202 16.1404 43.8726 16.2832 43.7933 16.4417C43.6982 16.5844 43.5713 16.7113 43.381 16.8064C43.2066 16.9016 42.9846 16.9491 42.7309 16.9491C42.3504 16.8857 42.0491 16.7747 41.8588 16.5686Z" fill="white"/>
<path d="M46.0608 16.8064C46.0449 16.7906 46.0291 16.7589 46.0291 16.7272V15.6965L44.9825 13.9364C44.9667 13.9205 44.9667 13.9047 44.9667 13.873C44.9667 13.8571 44.9825 13.8254 44.9984 13.8095C45.0142 13.7937 45.0301 13.7778 45.0618 13.7778H45.2679C45.3155 13.7778 45.3631 13.8095 45.3789 13.8571L46.2352 15.2683L47.0915 13.8571C47.1232 13.8095 47.1549 13.7778 47.2025 13.7778H47.4086C47.4244 13.7778 47.4562 13.7937 47.472 13.8095C47.4879 13.8254 47.5037 13.8413 47.5037 13.873C47.5037 13.8888 47.5037 13.9047 47.4879 13.9364L46.4413 15.6965V16.7272C46.4413 16.7589 46.4255 16.7747 46.4096 16.8064C46.3938 16.8223 46.3621 16.8381 46.3303 16.8381H46.1242C46.1083 16.8381 46.0925 16.8223 46.0608 16.8064Z" fill="white"/>
<path d="M13.6182 1.23538C13.6182 1.23538 12.4765 0.0461426 11.1763 0.0461426C10.0505 0.0461426 8.7344 1.23538 8.7344 1.23538C6.57791 3.23331 4.84954 5.37395 3.53345 7.75243C5.68994 10.2419 8.2587 12.3508 11.1605 13.9841C11.4142 14.1268 11.6837 14.2695 11.9374 14.4122C14.522 15.76 17.3604 16.7272 20.3414 17.2188C20.6268 17.2505 21.1659 17.2664 21.4355 16.9968C21.8002 16.6321 21.6575 15.8551 21.6575 15.8551C20.5317 9.87721 17.9629 5.24709 13.6182 1.23538Z" fill="white"/>
<path d="M3.13704 8.4978C2.01122 10.7177 1.20254 13.1438 0.679269 15.8394C0.679269 15.8394 0.504847 16.5688 0.901261 16.9652C1.28182 17.3458 2.2015 17.1555 2.2015 17.1555C5.27767 16.6798 7.79886 15.776 10.3835 14.3964C7.67201 12.8108 5.2301 10.8129 3.13704 8.4978Z" fill="white"/>
</svg>
