<svg width="20" height="20" viewBox="0 0 20 20" fill="none" xmlns="http://www.w3.org/2000/svg">
<path fill-rule="evenodd" clip-rule="evenodd" d="M2 16.6667C2 17.5871 2.70888 18.3333 3.58333 18.3333H14.2029L17.8333 14.5118V3.33333C17.8333 2.41286 17.1245 1.66666 16.25 1.66666H3.58333C2.70888 1.66666 2 2.41286 2 3.33333V16.6667ZM3.58333 3.33333H16.25V12.5H13.875C13.0005 12.5 12.2917 13.2462 12.2917 14.1667V16.6667H3.58333V3.33333ZM13.875 14.1667H15.9221L13.875 16.3215V14.1667ZM5.95833 12.5V14.1667H10.7083V12.5H5.95833ZM5.95833 10.8333V9.16666H13.875V10.8333H5.95833ZM5.95833 5.83333V7.5H13.875V5.83333H5.95833Z" fill="#0F0E1F"/>
</svg>
