<svg width="18" height="19" viewBox="0 0 18 19" fill="none" xmlns="http://www.w3.org/2000/svg">
<path fill-rule="evenodd" clip-rule="evenodd" d="M15.6667 4.25H12.3334V2.55147C12.3334 1.56737 11.5982 0.75 10.6667 0.75H2.33341C1.40195 0.75 0.666748 1.56737 0.666748 2.55147V16.4485C0.666748 17.4326 1.40195 18.25 2.33341 18.25H10.6667C11.5982 18.25 12.3334 17.4326 12.3334 16.4485V14.75H15.6667C16.5872 14.75 17.3334 13.9665 17.3334 13V6C17.3334 5.0335 16.5872 4.25 15.6667 4.25ZM12.3334 8.625H15.6667V13H12.3334V8.625ZM10.6667 16.4485V2.55147C10.6667 2.53402 10.6646 2.52191 10.6631 2.51384C10.6613 2.50377 10.6606 2.5 10.6667 2.5H2.33341C2.33952 2.5 2.33884 2.50377 2.33703 2.51384C2.33559 2.52191 2.33341 2.53402 2.33341 2.55147V16.4485C2.33341 16.466 2.33559 16.4781 2.33703 16.4862C2.33884 16.4962 2.33952 16.5 2.33341 16.5H10.6667C10.6606 16.5 10.6613 16.4962 10.6631 16.4862C10.6646 16.4781 10.6667 16.466 10.6667 16.4485ZM3.16675 13.875V15.625H4.83341V13.875H3.16675ZM5.66675 15.625V13.875H7.33341V15.625H5.66675ZM8.16675 13.875V15.625H9.83342V13.875H8.16675ZM3.16675 13V11.25H4.83341V13H3.16675ZM5.66675 11.25V13H7.33341V11.25H5.66675ZM8.16675 13V11.25H9.83342V13H8.16675ZM9.83342 10.375V3.375H3.16675V10.375H9.83342ZM4.83341 5.125V8.625H8.16675V5.125H4.83341ZM15.6667 6V6.875H12.3334V6H15.6667Z" fill="#0F0E1F"/>
</svg>
