<svg width="17" height="19" viewBox="0 0 17 19" fill="none" xmlns="http://www.w3.org/2000/svg">
<path fill-rule="evenodd" clip-rule="evenodd" d="M3.80632 2.50222C3.66572 2.50189 3.53019 2.51948 3.40139 2.55292C3.22484 2.12282 2.99163 1.73695 2.72638 1.44378C2.27618 0.946193 1.56615 0.75 0.583252 0.75V2.5C1.18369 2.5 1.52921 2.59547 1.60679 2.68122C1.90602 3.01194 2.16659 3.68393 2.16659 4.25L2.17454 4.37374L2.95027 10.3754C1.65228 10.4499 0.646742 11.564 0.584225 12.9566L0.583252 13.875C0.659902 15.3134 1.6621 16.42 2.91332 16.4986L3.09304 16.4989C3.41879 17.519 4.29879 18.25 5.33325 18.25C6.36734 18.25 7.24707 17.5195 7.57311 16.5H9.42673C9.75276 17.5195 10.6325 18.25 11.6666 18.25C12.9783 18.25 14.0416 17.0747 14.0416 15.625C14.0416 14.1753 12.9783 13 11.6666 13C10.6325 13 9.75276 13.7305 9.42673 14.75H7.57311C7.24707 13.7305 6.36734 13 5.33325 13C4.29916 13 3.41943 13.7305 3.09339 14.75H2.95825C2.55451 14.7232 2.19234 14.3233 2.16516 13.8226L2.16659 13C2.18793 12.5461 2.54762 12.1486 2.99748 12.1239L4.56034 12.1244L4.57167 12.125H12.5508L12.6676 12.084C13.2679 11.8735 13.7484 11.3739 13.9759 10.7272L14.0593 10.5448L14.3303 9.95139C14.6106 9.33718 14.891 8.72191 15.1642 8.12083C15.8333 6.64844 16.2541 5.7127 16.3473 5.48292C16.8259 4.30289 15.8564 3.39466 14.8655 3.37531L3.80632 2.50222ZM12.2757 10.375H4.63094C4.58011 10.3594 4.54137 10.3118 4.53379 10.2525L3.75804 4.25064L14.7488 5.12056C14.5565 5.55403 14.2069 6.32826 13.7493 7.33533L13.7378 7.36056C13.4766 7.93538 13.1966 8.5498 12.9166 9.16319L12.646 9.75581L12.5434 9.98023L12.5048 10.0794C12.4634 10.2068 12.3813 10.3114 12.2757 10.375ZM11.6666 16.5C12.1038 16.5 12.4583 16.1082 12.4583 15.625C12.4583 15.1418 12.1038 14.75 11.6666 14.75C11.2294 14.75 10.8749 15.1418 10.8749 15.625C10.8749 16.1082 11.2294 16.5 11.6666 16.5ZM6.12492 15.625C6.12492 16.1082 5.77048 16.5 5.33325 16.5C4.89603 16.5 4.54158 16.1082 4.54158 15.625C4.54158 15.1418 4.89603 14.75 5.33325 14.75C5.77048 14.75 6.12492 15.1418 6.12492 15.625Z" fill="#0F0E1F"/>
</svg>
