<svg width="20" height="20" viewBox="0 0 20 20" fill="none" xmlns="http://www.w3.org/2000/svg">
<path fill-rule="evenodd" clip-rule="evenodd" d="M10 18.3333C11.4371 18.3333 12.8225 17.9683 14.0496 17.2848L17.5789 17.5789L17.2848 14.0496C17.9683 12.8225 18.3333 11.4371 18.3333 10C18.3333 5.39762 14.6024 1.66666 10 1.66666C5.39762 1.66666 1.66666 5.39762 1.66666 10C1.66666 14.6024 5.39762 18.3333 10 18.3333ZM13.4292 15.7184L13.6597 15.5799L15.7544 15.7544L15.5799 13.6597L15.7184 13.4292C16.3359 12.402 16.6667 11.2263 16.6667 10C16.6667 6.3181 13.6819 3.33333 10 3.33333C6.3181 3.33333 3.33333 6.3181 3.33333 10C3.33333 13.6819 6.3181 16.6667 10 16.6667C11.2263 16.6667 12.402 16.3359 13.4292 15.7184ZM10.0003 14.1653C10.4607 14.1653 10.8339 13.7922 10.8339 13.332C10.8339 12.8717 10.4607 12.4986 10.0003 12.4986C9.53988 12.4986 9.16666 12.8717 9.16666 13.332C9.16666 13.7922 9.53988 14.1653 10.0003 14.1653ZM9.16666 11.6667H10.8333V10.8333C10.8333 10.8354 10.8373 10.831 10.8462 10.8212C10.8681 10.7971 10.9199 10.74 11.0171 10.6629C11.1005 10.5967 11.1264 10.5795 11.3373 10.4458C12.055 9.99083 12.5 9.19963 12.5 8.33333C12.5 6.95262 11.3807 5.83333 10 5.83333C8.61929 5.83333 7.5 6.95262 7.5 8.33333H9.16666C9.16666 7.87309 9.53976 7.5 10 7.5C10.4602 7.5 10.8333 7.87309 10.8333 8.33333C10.8333 8.62276 10.6854 8.88572 10.445 9.03817C10.1751 9.20923 10.1303 9.23892 9.98124 9.3572C9.48561 9.75039 9.16666 10.2189 9.16666 10.8333V11.6667Z" fill="#0F0E1F"/>
</svg>
