<svg width="99" height="41" viewBox="0 0 99 41" fill="none" xmlns="http://www.w3.org/2000/svg">
<path d="M75.3582 6.14881C75.3582 6.05348 75.3582 6.00582 75.3582 5.91049C75.3582 5.86282 75.3582 5.81516 75.3582 5.76749L71.9263 7.91242C71.4973 8.10307 71.259 7.86475 71.4973 7.72175L75.3582 5.33851C75.3582 5.19552 75.3105 5.10019 75.3105 4.95719L71.1637 7.5311C70.7347 7.72176 70.4964 7.3881 70.7347 7.24511L75.2152 4.62354C75.1675 4.52821 75.1675 4.43288 75.1199 4.33755C75.0722 4.33755 75.0722 4.28988 75.0722 4.28988L70.544 6.95912C70.0674 7.14978 69.972 6.76846 70.2104 6.62546L74.8815 3.76557C74.8339 3.67024 74.7385 3.52724 74.6909 3.43191L70.0197 6.29181C69.5907 6.48247 69.3524 6.24414 69.829 5.95815L74.4525 3.0506C74.3572 2.95527 74.2619 2.85994 74.1666 2.76461L69.6384 5.57684C69.2094 5.76749 69.2094 5.33851 69.5431 5.19552L73.8806 2.52628C73.8329 2.47862 73.7852 2.43095 73.7376 2.38329C73.6899 2.33562 73.6422 2.33562 73.5946 2.28796L69.4954 4.8142C69.0187 5.10019 68.9711 4.6712 69.4477 4.43288L73.2609 2.0973C73.1179 2.00197 72.9749 1.9543 72.8796 1.90664L69.4954 4.00389C69.0187 4.19455 69.0664 3.81323 69.5907 3.57491L72.5936 1.81131C72.3076 1.71598 72.117 1.62065 71.974 1.62065L69.686 2.95527C69.5907 2.66928 69.5907 2.52628 70.0674 2.24029L71.5926 1.38232C71.4496 1.38232 71.116 1.38232 71.0207 1.38232H70.973C68.5898 1.42999 66.6355 3.38425 66.6355 5.76749C66.6355 8.1984 68.6374 10.2003 71.0683 10.2003C72.9273 10.2003 74.5479 9.05637 75.2152 7.43577C74.7385 7.72176 74.2619 7.96008 73.6899 8.00774L75.2628 7.05445C75.3105 6.91145 75.3105 6.76846 75.3582 6.67313L73.0703 8.10307C72.6413 8.3414 72.1646 8.1984 72.3553 8.00774L75.3582 6.14881Z" fill="#791F50"/>
<path d="M83.08 38.0367V38.8946H85.4632C86.1305 38.8946 86.3212 39.0853 86.3212 39.6096V39.9432C86.3212 40.5152 86.1305 40.6582 85.4632 40.6582H83.2706C82.6033 40.6582 82.365 40.5152 82.365 39.9432V39.8479L82.937 39.7526V40.2292H85.7492V39.3236H83.366C82.6986 39.3236 82.508 39.1806 82.508 38.6086V38.3226C82.508 37.7507 82.6986 37.6077 83.366 37.6077H85.3679C85.9875 37.6077 86.2735 37.7507 86.2735 38.275V38.3226L85.7492 38.4656V38.0367H83.08Z" fill="#791F50"/>
<path d="M88.895 37.6075H91.9456C92.5176 37.6075 92.7559 37.7505 92.7559 38.2271V38.8944C92.7559 39.3234 92.5176 39.5141 91.9456 39.5141H91.3736L93.0895 40.7057H92.1362L90.611 39.5141H89.5147V40.7057H88.895V37.6075ZM89.5147 38.0365V39.1328H91.7073C91.9932 39.1328 92.1362 39.0851 92.1362 38.7991V38.3225C92.1362 38.0841 91.9932 37.9888 91.7073 37.9888H89.5147V38.0365Z" fill="#791F50"/>
<path d="M94.9009 37.6075H95.5205V40.2767H98.3804V40.7057H94.9009V37.6075Z" fill="#791F50"/>
<path d="M96.2354 31.1252V19.352C96.3308 12.9649 87.7988 10.2003 83.7949 16.5874V12.4405H75.4535V13.8228C76.8358 13.8228 78.2181 15.2051 78.2181 16.5874V31.1252C78.2181 34.6047 74.7386 34.6047 74.0713 31.1252V12.4405H66.4449V13.8228C67.8272 14.5378 68.5421 15.2051 68.5421 16.5874V31.1252C68.5421 33.8897 65.0626 34.6047 64.3953 31.1252V0H55.3866L56.1016 2.09726C57.4839 2.09726 58.1988 2.09726 58.8662 4.19451V15.9201C54.0043 9.67598 47.8079 12.4405 44.3284 19.3996C42.2311 12.4882 34.8907 10.105 29.0756 14.5855C25.1194 17.636 24.2614 22.1642 24.9764 27.6933L18.6846 18.6846C27.6933 17.3024 29.0756 1.38228 16.5874 1.38228H0V2.76456C2.76456 2.76456 4.14685 3.47954 4.14685 6.2441V29.7429C4.14685 32.5075 2.76456 33.2224 0 33.2224V35.3197H14.5378V33.2224C12.4405 33.9374 11.0583 32.5551 10.3909 29.0756V20.0669C12.4882 20.0669 13.8705 21.4492 14.5378 22.8315L22.1642 35.3197H30.4579V34.6047C37.3693 37.3693 42.2311 34.6047 44.3284 29.0756C47.0929 35.3197 54.0043 39.4665 58.8662 31.8402L59.5335 35.3197H86.5595V33.9374C85.1772 33.9374 84.4622 33.2224 83.7949 31.1728C83.7949 31.1728 83.5089 24.4044 83.7949 22.1642C84.7482 14.7285 90.8016 16.4921 90.7063 20.0669V30.4579C90.7063 32.5551 89.9913 33.9374 87.9417 33.9374V35.3197H99V33.9374C97.6177 33.9374 96.9504 33.2224 96.2354 31.1252ZM13.1555 17.9697H10.3909V5.52913C10.3909 3.43187 11.7732 3.43187 13.8705 3.43187C18.7323 4.14685 18.7323 8.961 18.7323 12.4405C18.0173 15.9201 16.5874 17.3024 13.1555 17.9697ZM38.7516 30.4579C38.3702 35.4627 32.0785 35.3197 31.6495 30.5532C31.2682 26.3587 31.2205 22.6885 31.3635 19.3996C32.0785 13.1555 38.1319 13.1555 38.7516 19.3996C39.1329 22.9268 39.0852 26.597 38.7516 30.4579ZM58.1512 28.3606C58.1035 32.4598 51.7164 33.9374 50.5248 29.0756C49.7145 25.6437 49.6192 22.7838 50.5248 19.3996C51.6688 15.1574 56.7689 14.5378 58.1512 18.6846C58.4848 22.2118 58.1988 24.9287 58.1512 28.3606Z" fill="#791F50"/>
</svg>
