<svg width="20" height="20" viewBox="0 0 20 20" fill="none" xmlns="http://www.w3.org/2000/svg">
<path fill-rule="evenodd" clip-rule="evenodd" d="M10 19C5.02944 19 1 14.9706 1 10C1 5.02944 5.02944 1 10 1C14.9706 1 19 5.02944 19 10C19 14.9706 14.9706 19 10 19ZM16.0541 14.1929C16.8798 13.003 17.3636 11.558 17.3636 10C17.3636 5.93318 14.0668 2.63637 10 2.63637C5.93317 2.63637 2.63636 5.93318 2.63636 10C2.63636 11.558 3.12022 13.003 3.94587 14.1929C4.86669 12.9766 7.03049 12.4545 10 12.4545C12.9695 12.4545 15.1333 12.9766 16.0541 14.1929ZM14.8802 15.5144C14.6407 14.6533 12.9204 14.0909 10 14.0909C7.0796 14.0909 5.35927 14.6533 5.11981 15.5144C6.41906 16.6651 8.12795 17.3636 10 17.3636C11.872 17.3636 13.5809 16.6651 14.8802 15.5144ZM10 5.09091C8.01926 5.09091 6.72727 6.52744 6.72727 8.36364C6.72727 11.1679 8.16798 12.4545 10 12.4545C11.8148 12.4545 13.2727 11.2106 13.2727 8.52727C13.2727 6.66311 11.9753 5.09091 10 5.09091ZM8.36364 8.36363C8.36364 10.2203 9.03308 10.8182 10 10.8182C10.9636 10.8182 11.6364 10.2441 11.6364 8.52727C11.6364 7.50488 10.9946 6.72727 10 6.72727C8.96397 6.72727 8.36364 7.39476 8.36364 8.36363Z" fill="#0F0E1F"/>
</svg>
