<svg width="22" height="21" viewBox="0 0 22 21" fill="none" xmlns="http://www.w3.org/2000/svg">
<path fill-rule="evenodd" clip-rule="evenodd" d="M11.0001 20.1667C5.43121 20.1667 0.916748 15.6522 0.916748 10.0833C0.916748 4.51446 5.43121 0 11.0001 0C16.569 0 21.0834 4.51446 21.0834 10.0833C21.0834 15.6522 16.569 20.1667 11.0001 20.1667ZM17.783 14.7809C18.708 13.4478 19.2501 11.8289 19.2501 10.0833C19.2501 5.52698 15.5564 1.83333 11.0001 1.83333C6.44373 1.83333 2.75008 5.52698 2.75008 10.0833C2.75008 11.8289 3.29218 13.4478 4.21721 14.7809C5.24859 13.4186 7.67183 12.8336 10.9974 12.8333C8.94613 12.8321 7.33342 11.3904 7.33342 8.25C7.33342 6.19278 8.78092 4.58333 11.0001 4.58333C13.2131 4.58333 14.6667 6.34478 14.6667 8.43333C14.6667 11.4396 13.0333 12.8333 11.0001 12.8333C14.327 12.8333 16.7513 13.4182 17.783 14.7809ZM16.4677 16.2615C16.1994 15.2967 14.272 14.6667 11.0001 14.6667C7.72815 14.6667 5.80075 15.2967 5.53245 16.2614C6.98811 17.5507 8.90269 18.3333 11.0001 18.3333C13.0975 18.3333 15.0121 17.5507 16.4677 16.2615ZM9.16675 8.25C9.16675 10.3302 9.91677 11 11.0001 11C12.0796 11 12.8334 10.3569 12.8334 8.43333C12.8334 7.28788 12.1144 6.41667 11.0001 6.41667C9.83934 6.41667 9.16675 7.16451 9.16675 8.25Z" fill="#0F0E1F"/>
</svg>
