<svg width="16" height="16" viewBox="0 0 16 16" fill="none" xmlns="http://www.w3.org/2000/svg">
<path fill-rule="evenodd" clip-rule="evenodd" d="M9.81971 11.3651C8.82292 12.0521 7.61469 12.4543 6.3125 12.4543C2.89524 12.4543 0.125 9.68411 0.125 6.26685C0.125 2.84958 2.89524 0.0793457 6.3125 0.0793457C9.72976 0.0793457 12.5 2.84958 12.5 6.26685C12.5 7.56903 12.0977 8.77726 11.4107 9.77406L15.5455 13.9088L13.9545 15.4998L9.81971 11.3651ZM6.3125 10.2043C8.48712 10.2043 10.25 8.44147 10.25 6.26685C10.25 4.09222 8.48712 2.32935 6.3125 2.32935C4.13788 2.32935 2.375 4.09222 2.375 6.26685C2.375 8.44147 4.13788 10.2043 6.3125 10.2043Z" fill="#0F0E1F"/>
</svg>
