<svg width="20" height="19" viewBox="0 0 20 19" fill="none" xmlns="http://www.w3.org/2000/svg">
<path fill-rule="evenodd" clip-rule="evenodd" d="M16.6667 0.791664V7.125H16.6667L16.6667 7.91668L16.6667 8.70833L16.6666 10.2871C16.6739 11.4922 15.9662 11.8737 13.9928 12.4354C12.8362 12.7647 12.5 12.9456 12.5 13.0625C12.5 13.6702 12.5586 14.0782 12.6834 14.5528C12.6593 14.461 12.8016 14.9839 12.8331 15.1232C12.8883 15.3682 12.9167 15.5912 12.9167 15.8333C12.9167 17.1482 11.6147 18.2083 9.99999 18.2083C8.38526 18.2083 7.08333 17.1482 7.08333 15.8333C7.08333 15.5912 7.11166 15.3682 7.16693 15.1232C7.19836 14.9839 7.34069 14.461 7.31654 14.5528C7.44142 14.0782 7.49999 13.6702 7.49999 13.0625C7.49999 12.9448 7.16476 12.7643 6.01054 12.4354C4.03976 11.8737 3.33333 11.4934 3.33333 10.2917V8.70833V7.125V0.791664H16.6667ZM10.772 8.70833H15L15 10.2917C15.0007 10.4108 14.667 10.5906 13.5144 10.9187L13.5108 10.9198C11.5411 11.4805 10.8333 11.8613 10.8333 13.0625C10.8333 13.8072 10.9102 14.3426 11.0665 14.9368C11.0516 14.8801 11.1806 15.3537 11.2034 15.4549C11.2355 15.5973 11.25 15.7114 11.25 15.8333C11.25 16.2149 10.7464 16.625 9.99999 16.625C9.25361 16.625 8.74999 16.2149 8.74999 15.8333C8.74999 15.7114 8.76449 15.5973 8.7966 15.4549C8.81943 15.3537 8.94836 14.8801 8.93345 14.9368C9.08982 14.3426 9.16666 13.8072 9.16666 13.0625C9.16666 11.8608 8.46023 11.4805 6.48945 10.9188C5.33523 10.5899 4.99999 10.4094 4.99999 10.2917V8.70833H10.772ZM4.99999 7.125V2.375H6.66666V5.54166H8.33333V2.375H9.99999V4.75H11.6667V2.375H15V7.125H4.99999Z" fill="#0F0E1F"/>
</svg>
