<svg width="20" height="20" viewBox="0 0 20 20" fill="none" xmlns="http://www.w3.org/2000/svg">
<path fill-rule="evenodd" clip-rule="evenodd" d="M16.6667 15.8333V7.5C17.5871 7.5 18.3333 6.75381 18.3333 5.83333V4.16667C18.3333 3.24619 17.5871 2.5 16.6667 2.5H3.33334C2.41286 2.5 1.66667 3.24619 1.66667 4.16667V5.83333C1.66667 6.75381 2.41286 7.5 3.33334 7.5V15.8333C3.33334 16.7538 4.07953 17.5 5.00001 17.5H15C15.9205 17.5 16.6667 16.7538 16.6667 15.8333ZM5.00001 15.8333V7.5H15V15.8333H5.00001ZM7.50001 10V8.33333H12.5V10H7.50001ZM3.33334 5.83333V4.16667H16.6667V5.83333H3.33334Z" fill="#0F0E1F"/>
</svg>
