<svg width="29" height="29" viewBox="0 0 29 29" fill="none" xmlns="http://www.w3.org/2000/svg">
<g id="16 / circle-chevron-right">
<path id="icon" fill-rule="evenodd" clip-rule="evenodd" d="M14.25 28.5C6.37994 28.5 0 22.1201 0 14.25C0 6.37994 6.37994 0 14.25 0C22.1201 0 28.5 6.37994 28.5 14.25C28.5 22.1201 22.1201 28.5 14.25 28.5ZM14.25 24.9375C20.1525 24.9375 24.9375 20.1525 24.9375 14.25C24.9375 8.34746 20.1525 3.5625 14.25 3.5625C8.34746 3.5625 3.5625 8.34746 3.5625 14.25C3.5625 20.1525 8.34746 24.9375 14.25 24.9375ZM11.2092 10.1658L15.2934 14.25L11.2092 18.3342L13.7283 20.8533L20.3316 14.25L13.7283 7.6467L11.2092 10.1658Z" fill="#F6A92F"/>
</g>
</svg>
